{"title":"Prince Royce - My Angel (from Furious 7) 2015","uid":11755098,"size":105833699,"categoryP":"video","categoryS":"music_videos","magnet":"?xt=urn:btih:c1fbf79c6b7e33a7ce80c6f5fdff7d347c3a5619&amp;dn=Prince+Royce+-+My+Angel+%28from+Furious+7%29+2015&amp;tr=udp%3A%2F%2Ftracker.openbittorrent.com%3A80&amp;tr=udp%3A%2F%2Fopen.demonii.com%3A1337&amp;tr=udp%3A%2F%2Ftracker.coppersurfer.tk%3A6969&amp;tr=udp%3A%2F%2Fexodus.desync.com%3A6969","seeders":6,"leechers":0,"uploader":"MeRaDil","files":1,"time":1426349148,"description":"PRINCE ROYCE - MY ANGEL\n\n &lt;a href=&quot;\nhttp://gifyu.com/images/angel802cc.png&quot; rel=&quot;nofollow&quot; target=&quot;_NEW&quot;&gt;\nhttp://gifyu.com/images/angel802cc.png&lt;/a&gt;\n &lt;a href=&quot;\nhttp://gifyu.com/images/PrinceRoyce.png&quot; rel=&quot;nofollow&quot; target=&quot;_NEW&quot;&gt;\nhttp://gifyu.com/images/PrinceRoyce.png&lt;/a&gt;\n\nGeneral\nPrince Royce - My Angel (from Furious 7)\nFormat                      : MPEG-4\nFormat profile              : Base Media / Version 2\nCodec ID                    : mp42\nFile size                   : 101 MiB\nDuration                    : 3mn 28s\nOverall bit rate mode       : Variable\nOverall bit rate            : 4 059 Kbps\nMusicVid name               : My Angel\nAlbum                       : Furious 7 Original Motion Picture Soundtrack\nPerformer                   : Prince Royce\nGenre                       : Soundtrack\nContentType                 : Music Video\nRecorded date               : 2015\nCopyright                   : Furious 7\nCover                       : Yes\nComment                     : from the movie  Fast &amp; Furious 7\nRating                      : ***\nMake                        : MeRaDil\noday                        : USA 04-03-2015\nRelease                     : USA - march 4 - 2015\nPart_ID                     : My Angel\n\nVideo\nID                          : 1\nFormat                      : AVC\nFormat/Info                 : Advanced Video Codec\nFormat profile              : &lt;a class=&quot;__cf_email__&quot; href=&quot;/cdn-cgi/l/email-protection&quot; data-cfemail=&quot;a1e9c8c6c9e1ed958f91&quot;&gt;[email&amp;#160;protected]&lt;/a&gt;&lt;script cf-hash='f9e31' type=&quot;text/javascript&quot;&gt;\n/* &lt;![CDATA[ */!function(){try{var t=&quot;currentScript&quot;in document?document.currentScript:function(){for(var t=document.getElementsByTagName(&quot;script&quot;),e=t.length;e--;)if(t[e].getAttribute(&quot;cf-hash&quot;))return t[e]}();if(t&amp;&amp;t.previousSibling){var e,r,n,i,c=t.previousSibling,a=c.getAttribute(&quot;data-cfemail&quot;);if(a){for(e=&quot;&quot;,r=parseInt(a.substr(0,2),16),n=2;a.length-n;n+=2)i=parseInt(a.substr(n,2),16)^r,e+=String.fromCharCode(i);e=document.createTextNode(e),c.parentNode.replaceChild(e,c)}}}catch(u){}}();/* ]]&gt; */&lt;/script&gt;\nFormat settings, CABAC      : Yes\nFormat settings, ReFrames   : 2 frames\nCodec ID                    : avc1\nCodec ID/Info               : Advanced Video Coding\nDuration                    : 3mn 28s\nSource duration             : 3mn 28s\nBit rate                    : 3 796 Kbps\nWidth                       : 1 920 pixels\nHeight                      : 1 080 pixels\nDisplay aspect ratio        : 16:9\nFrame rate mode             : Variable\nFrame rate                  : 23.976 fps\nMinimum frame rate          : 23.974 fps\nMaximum frame rate          : 23.981 fps\nColor space                 : YUV\nChroma subsampling          : 4:2:0\nBit depth                   : 8 bits\nScan type                   : Progressive\nBits/(Pixel*Frame)          : 0.076\nStream size                 : 94.4 MiB (94%)\nSource stream size          : 94.4 MiB (94%)\nLanguage                    : English\nmdhd_Duration               : 208542\n\nAudio\nID                          : 2\nFormat                      : AAC\nFormat/Info                 : Advanced Audio Codec\nFormat profile              : LC\nCodec ID                    : 40\nDuration                    : 3mn 28s\nSource duration             : 3mn 28s\nBit rate mode               : Variable\nBit rate                    : 256 Kbps\nChannel(s)                  : 2 channels\nChannel positions           : Front: L R\nSampling rate               : 44.1 KHz\nCompression mode            : Lossy\nStream size                 : 6.36 MiB (6%)\nSource stream size          : 6.36 MiB (6%)\nLanguage                    : English\nmdhd_Duration               : 208570\n &lt;a href=&quot;\nhttps://thepiratebay.se/user/MeRaDil&quot; rel=&quot;nofollow&quot; target=&quot;_NEW&quot;&gt;\nhttps://thepiratebay.se/user/MeRaDil&lt;/a&gt;\n\nPrince Royce * Fast &amp; Furious 7 * Promo * Soundtrack\n\n:)","torrent":{"xt":"urn:btih:c1fbf79c6b7e33a7ce80c6f5fdff7d347c3a5619","amp;dn":"Prince+Royce+-+My+Angel+%28from+Furious+7%29+2015","amp;tr":["udp%3A%2F%2Ftracker.openbittorrent.com%3A80","udp%3A%2F%2Fopen.demonii.com%3A1337","udp%3A%2F%2Ftracker.coppersurfer.tk%3A6969","udp%3A%2F%2Fexodus.desync.com%3A6969"],"infoHash":"c1fbf79c6b7e33a7ce80c6f5fdff7d347c3a5619","infoHashBuffer":{"type":"Buffer","data":[193,251,247,156,107,126,51,167,206,128,198,245,253,255,125,52,124,58,86,25]},"announce":[],"urlList":[]}}